PathFileType	4	(X/Y/Z)	Patient4_TMGait_0pt4_01_right_40.trc.trc
DataRate	CameraRate	NumFrames	NumMarkers	Units	OrigDataRate	OrigDataStartFrame	OrigNumFrames
77.777777777778	77.777777777778	5	33	mm	77.777777777778	1	       141
Frame#	Time	Sacral			L.Shoulder			Chest			R.Shoulder			Neck			R.ASIS			L.ASIS			R.Thigh.Superior			R.Thigh.Lateral			R.Thigh.Inferior			R.Patella			L.Thigh.Superior			L.Thigh.Lateral			L.Thigh.Inferior			L.Patella			L.Shank.Superior			L.Shank.Lateral			L.Shank.Inferior			R.Shank.Superior			R.Shank.Lateral			R.Shank.Inferior			R.Heel			R.Midfoot.Superior			R.Midfoot.Lateral			R.Toe			L.Heel			L.Midfoot.Lateral			L.Midfoot.Superior			L.Toe			L.Elbow			L.Wrist			R.Elbow			R.Wrist			
		X1	Y1	Z1	X2	Y2	Z2	X3	Y3	Z3	X4	Y4	Z4	X5	Y5	Z5	X6	Y6	Z6	X7	Y7	Z7	X8	Y8	Z8	X9	Y9	Z9	X10	Y10	Z10	X11	Y11	Z11	X12	Y12	Z12	X13	Y13	Z13	X14	Y14	Z14	X15	Y15	Z15	X16	Y16	Z16	X17	Y17	Z17	X18	Y18	Z18	X19	Y19	Z19	X20	Y20	Z20	X21	Y21	Z21	X22	Y22	Z22	X23	Y23	Z23	X24	Y24	Z24	X25	Y25	Z25	X26	Y26	Z26	X27	Y27	Z27	X28	Y28	Z28	X29	Y29	Z29	X30	Y30	Z30	X31	Y31	Z31	X32	Y32	Z32	X33	Y33	Z33	

1	52.200000000000	836.273226646249	1010.472770611172	438.596494371841	1022.339448890807	1432.372283305307	237.983401318023	1122.090133754131	1372.219500704337	404.086376939198	1034.433402652538	1452.530469719204	573.430228681788	1000.477666978139	1499.873959814898	391.672194567471	1065.945553052200	954.539549397279	556.987016859694	1052.340619281144	965.246938591415	283.211971835188	1148.541429430708	781.661051757642	526.244248776996	1110.893841889839	659.875188387717	601.583017691654	1198.658667388199	620.993959549751	520.995595384551	1219.884272111969	511.658405323946	544.695711589926	1097.820126276550	750.660695477049	311.445911110043	1004.961604393317	637.116550185675	255.899593310182	1088.155417085736	558.125253058857	318.322094626267	1085.876030261718	490.037701058691	329.530442601691	1060.166490263162	418.554395146715	322.152044963958	970.286296450958	303.908135938332	273.240747360456	1020.835914478971	193.346131608032	345.499804265064	1151.441410973191	432.143308181935	553.400773084873	1036.202228019990	379.842620605831	616.690834357475	1033.196121322453	269.116108820282	568.104964689538	840.259366561406	184.741796095029	544.056649076028	1015.233848997745	145.271738768987	582.228534217895	906.483842255111	131.285828156066	616.447908320762	1092.778483938213	40.657133075790	606.443513490624	892.312570442490	38.566009719697	390.917804740934	964.659307029803	35.498300304504	308.504979412172	1048.205601585506	96.103816835349	334.038514938362	1176.597368125737	44.023340071650	303.118161928149	1026.710678256563	1081.371091429092	115.291188020040	1181.896124260327	868.625401251757	118.277400383205	966.648517491554	1116.454570293181	706.811289352688	1013.229152609282	859.413476245271	720.544556617178	
2	52.212857142857	834.609653855162	1010.482372780303	437.030658591150	1023.966201630960	1432.572819199079	237.858053616160	1121.320131453598	1372.077895003247	405.160336823650	1031.500107342352	1452.348886420295	573.294247164614	1000.175429042896	1499.945289537335	391.513017214938	1063.369829492294	955.059564641484	557.282651232844	1051.952680805075	965.195500275274	283.466401110024	1147.256849513976	783.259423594740	526.857372240326	1110.722933314664	661.362126682102	602.265732350764	1198.174586049229	622.929514237330	521.282833282117	1221.332880750367	515.159457368616	545.383160559718	1095.840723604441	750.179029023985	312.644038070579	1002.748473859286	637.047840127925	255.748344213130	1084.901616469725	557.602232175556	318.723538876473	1082.087377974988	489.513719602988	329.830470294400	1056.165483850406	418.155011987415	322.359864595953	966.077821569614	303.844833434962	273.141542685285	1015.711180893276	193.056101835285	345.523164902091	1155.952972259386	434.068226315583	554.395720948747	1043.829224578587	376.617333325187	617.874791136011	1046.060625519166	266.101014511095	569.412098033205	858.035177728713	172.837986506103	545.376201599607	1033.802109292855	141.263323288150	583.076465300859	926.465829505006	122.783047617316	617.939245178133	1116.148315915428	41.223802535223	608.215865030362	886.845459785369	38.585525863394	390.873442157009	959.216665713934	35.489920606227	308.473760451784	1042.811595101300	96.049465332221	334.081569615627	1171.204374065237	43.826068438528	303.146861429927	1031.765715657415	1082.404253664358	113.618905282029	1194.136100915884	875.774868032827	119.476735288609	958.021587292355	1117.905566696934	706.555597044252	998.837197175921	860.495573174785	723.267077000159	
3	52.225714285714	832.962970834750	1010.484574958512	435.493433802228	1025.575880801810	1432.740887534190	237.773541942031	1120.565303103013	1371.909608936631	406.252042593343	1028.628997488888	1452.149311881825	573.191002175192	999.889292794178	1499.994229371885	391.389397901518	1060.813936738167	955.529420550794	557.604234419423	1051.561032371761	965.121241511510	283.732655153284	1145.884234024688	784.729227903060	527.499731491119	1110.373222999613	662.748114898485	602.984145487334	1197.522816107843	624.723080064760	521.641705614690	1222.564743855022	518.562699209959	546.133657916158	1093.872599967710	749.691620889676	313.804918486436	1000.541380055921	636.975965829020	255.597950886777	1081.672491817793	557.082220164380	319.106685361846	1078.332606383647	488.992915978547	330.114832144301	1052.198696949820	417.754150824510	322.553881337755	961.898636352670	303.776600976193	273.037773754860	1010.625057870029	192.763425716764	345.543563744596	1160.312845371029	435.944480892628	555.440508533300	1051.388658888385	373.340793487333	619.103715833818	1058.923959571062	263.110194788184	570.766588108349	875.991469303215	160.950660572055	546.702672552704	1052.463944272914	137.370484866584	584.020258678682	946.582091038867	114.346254767560	619.455886095298	1139.563355716179	41.963553438253	610.061491494017	881.425658460123	38.601672652475	390.827849542691	953.815800535592	35.478998701128	308.442136864181	1037.456610856123	95.994376576829	334.122003490863	1165.851604017462	43.633500991266	303.174825638941	1036.771525887770	1083.411073679127	112.003037025808	1206.222326436477	882.917893006528	120.734270614939	949.512473543829	1119.328410964729	706.293720393835	984.728857072775	861.571881361906	725.883814493258	
4	52.238571428571	831.355217862764	1010.474833763946	434.022184381483	1027.147254337344	1432.850519743015	237.778448408076	1119.841703321571	1371.692323901073	407.384806806622	1025.884707450810	1451.917691004024	573.162457733539	999.631571926893	1500.002486381750	391.345385627372	1058.303627156036	955.904162429588	557.982450524525	1051.150403054133	964.996516933030	284.034231929056	1144.336026484713	785.940916657011	528.207377497774	1109.669134887893	663.931371706509	603.781431032313	1196.542564468441	626.233227046587	522.145303049414	1223.360667963777	521.759023396961	546.995339659829	1091.922251557587	749.191741312728	314.903664253382	998.344220068191	636.897617331719	255.457364704882	1078.485185048348	556.565740081617	319.464454617924	1074.635621166988	488.476566437553	330.376083099043	1048.288871940506	417.350239711423	322.727119875091	957.764446098306	303.700754293564	272.928658166835	1005.603698615539	192.467505961465	345.560722938576	1164.356905988512	437.723290356193	556.576152484978	1058.801549054598	369.992387186607	620.423037108342	1071.734843895677	260.203299233986	572.205971367186	894.235679527499	149.177859025488	548.060517747945	1071.237844389119	133.758484622885	585.145467424761	966.896022923789	106.106105658268	621.021369102791	1162.973707842355	43.076796518359	612.009677584516	876.082551019848	38.612320369037	390.780221356139	948.482637007323	35.463235642355	308.409767139564	1032.164727802491	95.938407105736	334.157120223595	1160.563903552944	43.450496984135	303.201031193813	1041.681738765124	1084.366963853921	110.520863354455	1217.996282438467	890.052246127249	122.119847021918	941.258704006366	1120.688643371243	706.020350549392	971.212095476835	862.626206865798	728.288232871294	
5	52.251428571429	829.803302342619	1010.452303906519	432.647151868073	1028.663152937631	1432.882822689304	237.916179857141	1119.162460802089	1371.409148008664	408.581598670436	1023.316687855885	1451.643662396847	573.246282016824	999.410794551749	1499.956675732986	391.420982981083	1055.856830731273	956.147599416780	558.444942010020	1050.719170992560	964.808375678456	284.391691561835	1142.531074179950	786.786883183426	529.015860982660	1108.455615382362	664.827184031977	604.697817527297	1195.097797388431	627.344781649265	522.858157345180	1223.540356834725	524.659102003927	548.001839910958	1089.991724354752	748.671680541120	315.924644201370	996.154482606367	636.809577087385	255.337417810693	1075.344366673245	556.051000189638	319.796822490716	1071.004431984836	487.964048964661	330.613905846040	1044.442200608994	416.940926986156	322.878194181936	953.674926562882	303.615885044981	272.815489746059	1000.655831242230	192.168407914655	345.576128640988	1167.950698437597	439.370776246880	557.832979768024	1066.019963410950	366.563432410819	621.875161889196	1084.460671784706	257.448076231559	573.759500959192	912.876715179763	137.626567768001	549.485195076884	1090.152367767093	130.588062724815	586.514929165029	987.484526246727	98.198537399314	622.661554552945	1186.351392861323	44.757166945569	614.066016916019	870.821894261174	38.616101958627	390.730057928904	943.221798629487	35.440993825446	308.376472325097	1026.939316569179	95.881360611706	334.185153778191	1155.344978272263	43.280645822637	303.224776873458	1046.470582878693	1085.254129929756	109.242369262870	1229.349011219705	897.192959700790	123.699307797478	933.367572516100	1121.959318294013	705.732252666622	958.524450938479	863.642753098932	730.396033957016	
